# xmcd CD database file
#
# Track frame offsets:
#	150
#	11768
#	23342
#	39269
#	55130
#	67836
#	82151
#	95398
#	108076
#	120994
#	135169
#	148615
#	168508
#	181199
#	195217
#	208823
#	223024
#	236967
#	250240
#	263231
#	276892
#	292143
#
# Disc length: 4133 seconds
#
# Revision: 0
# Processed by: cddbd v1.5.2PL0 Copyright (c) Steve Scherf et al.
# Submitted via: CDex 1.70beta2
#
DISCID=33102316
DTITLE=Fats Waller - Giants of Jazz Disc 2
DYEAR=1900
DGENRE=Jazz
TTITLE0=Baby Brown: Fats Waller and His Rhythm 
TTITLE1=(O Susannah!) Dust Off That Old Pianna: Fats Waller and His Rhythm 
TTITLE2=Sweet and Slow: Fats Waller and His Rhythm
TTITLE3=I'm Gonna Sit Right Down and Write Myself a Letter: Fats Waller and His Rhythm 
TTITLE4=Twelfth Street Rag: Fats Waller and His Rhythm
TTITLE5=I Got Rhythm: Fats Waller and His Rhythm
TTITLE6=It's a Sin to Tell a Lie: Fats Waller and His Rhythm
TTITLE7=Black Raspberry Jam: Fats Waller and His Rhythm 
TTITLE8=S'posin': Fats Waller and His Rhythm 
TTITLE9=Honeysuckle Rose: A Jam Session at Victor
TTITLE10=Blues: A Jam Session at Victor
TTITLE11=Blue, Turning Grey Over You: Fats Waller and His Rhythm 
TTITLE12=The Joint Is Jumping: Fats Waller and His Rhythm
TTITLE13=The Sheik of Araby: Fats Waller, His Rhythm and His Orchestra 
TTITLE14=Yacht Club Swing: Fats Waller and His Rhythm
TTITLE15=Squeeze Me: Fats Waller and His Rhythm
TTITLE16=Your Feet's Too Big: Fats Waller and His Rhythm
TTITLE17=Georgia Grind: Eddie Condon and His Band
TTITLE18=(You're Some) Pretty Doll: Eddie Condon and His Band 
TTITLE19=Georgia on My Mind: Fats Waller
TTITLE20=The Jitterbug Waltz: Fats Waller, His Rhythm and Orchestra 
TTITLE21=Ain't Misbehavin': Fats Walter and His Rhythm
EXTD=
EXTT0=
EXTT1=
EXTT2=
EXTT3=
EXTT4=
EXTT5=
EXTT6=
EXTT7=
EXTT8=
EXTT9=
EXTT10=
EXTT11=
EXTT12=
EXTT13=
EXTT14=
EXTT15=
EXTT16=
EXTT17=
EXTT18=
EXTT19=
EXTT20=
EXTT21=
PLAYORDER=
